<mxfile host="app.diagrams.net" modified="2023-10-16T01:53:00.776Z" agent="Mozilla/5.0 (Windows NT 10.0; Win64; x64) AppleWebKit/537.36 (KHTML, like Gecko) Chrome/106.0.0.0 Safari/537.36 Edg/106.0.1370.47" etag="JAs1X0VysMp_NQ0gVOK4" version="22.0.4" type="github">
  <diagram id="C5RBs43oDa-KdzZeNtuy" name="Page-1">
    <mxGraphModel dx="501" dy="439" grid="1" gridSize="10" guides="1" tooltips="1" connect="1" arrows="1" fold="1" page="1" pageScale="1" pageWidth="827" pageHeight="1169" math="0" shadow="0">
      <root>
        <mxCell id="WIyWlLk6GJQsqaUBKTNV-0" />
        <mxCell id="WIyWlLk6GJQsqaUBKTNV-1" parent="WIyWlLk6GJQsqaUBKTNV-0" />
        <mxCell id="y9Y1NvHiftYscU7KsKt9-7" style="edgeStyle=orthogonalEdgeStyle;rounded=0;orthogonalLoop=1;jettySize=auto;html=1;" edge="1" parent="WIyWlLk6GJQsqaUBKTNV-1" source="y9Y1NvHiftYscU7KsKt9-0">
          <mxGeometry relative="1" as="geometry">
            <mxPoint x="260" y="260" as="targetPoint" />
          </mxGeometry>
        </mxCell>
        <mxCell id="y9Y1NvHiftYscU7KsKt9-0" value="MULAI" style="rounded=1;whiteSpace=wrap;html=1;" vertex="1" parent="WIyWlLk6GJQsqaUBKTNV-1">
          <mxGeometry x="200" y="160" width="120" height="60" as="geometry" />
        </mxCell>
        <mxCell id="y9Y1NvHiftYscU7KsKt9-8" value="" style="edgeStyle=orthogonalEdgeStyle;rounded=0;orthogonalLoop=1;jettySize=auto;html=1;" edge="1" parent="WIyWlLk6GJQsqaUBKTNV-1" source="y9Y1NvHiftYscU7KsKt9-1" target="y9Y1NvHiftYscU7KsKt9-2">
          <mxGeometry relative="1" as="geometry" />
        </mxCell>
        <mxCell id="y9Y1NvHiftYscU7KsKt9-1" value="INTEGER BIL" style="rounded=0;whiteSpace=wrap;html=1;" vertex="1" parent="WIyWlLk6GJQsqaUBKTNV-1">
          <mxGeometry x="200" y="270" width="120" height="60" as="geometry" />
        </mxCell>
        <mxCell id="y9Y1NvHiftYscU7KsKt9-9" value="" style="edgeStyle=orthogonalEdgeStyle;rounded=0;orthogonalLoop=1;jettySize=auto;html=1;" edge="1" parent="WIyWlLk6GJQsqaUBKTNV-1" source="y9Y1NvHiftYscU7KsKt9-2" target="y9Y1NvHiftYscU7KsKt9-3">
          <mxGeometry relative="1" as="geometry" />
        </mxCell>
        <mxCell id="y9Y1NvHiftYscU7KsKt9-2" value="INPUT BIL" style="shape=parallelogram;perimeter=parallelogramPerimeter;whiteSpace=wrap;html=1;fixedSize=1;" vertex="1" parent="WIyWlLk6GJQsqaUBKTNV-1">
          <mxGeometry x="190" y="380" width="140" height="60" as="geometry" />
        </mxCell>
        <mxCell id="y9Y1NvHiftYscU7KsKt9-10" value="ya" style="edgeStyle=orthogonalEdgeStyle;rounded=0;orthogonalLoop=1;jettySize=auto;html=1;" edge="1" parent="WIyWlLk6GJQsqaUBKTNV-1" source="y9Y1NvHiftYscU7KsKt9-3" target="y9Y1NvHiftYscU7KsKt9-4">
          <mxGeometry relative="1" as="geometry">
            <Array as="points">
              <mxPoint x="358" y="530" />
              <mxPoint x="358" y="590" />
            </Array>
          </mxGeometry>
        </mxCell>
        <mxCell id="y9Y1NvHiftYscU7KsKt9-11" value="tidak" style="edgeStyle=orthogonalEdgeStyle;rounded=0;orthogonalLoop=1;jettySize=auto;html=1;" edge="1" parent="WIyWlLk6GJQsqaUBKTNV-1" source="y9Y1NvHiftYscU7KsKt9-3" target="y9Y1NvHiftYscU7KsKt9-5">
          <mxGeometry relative="1" as="geometry" />
        </mxCell>
        <mxCell id="y9Y1NvHiftYscU7KsKt9-3" value="BIL MOD=2" style="rhombus;whiteSpace=wrap;html=1;" vertex="1" parent="WIyWlLk6GJQsqaUBKTNV-1">
          <mxGeometry x="185" y="490" width="150" height="80" as="geometry" />
        </mxCell>
        <mxCell id="y9Y1NvHiftYscU7KsKt9-19" style="edgeStyle=orthogonalEdgeStyle;rounded=0;orthogonalLoop=1;jettySize=auto;html=1;entryX=1;entryY=0.5;entryDx=0;entryDy=0;" edge="1" parent="WIyWlLk6GJQsqaUBKTNV-1" source="y9Y1NvHiftYscU7KsKt9-4" target="y9Y1NvHiftYscU7KsKt9-6">
          <mxGeometry relative="1" as="geometry">
            <Array as="points">
              <mxPoint x="430" y="720" />
            </Array>
          </mxGeometry>
        </mxCell>
        <mxCell id="y9Y1NvHiftYscU7KsKt9-4" value="Output bil genap" style="shape=parallelogram;perimeter=parallelogramPerimeter;whiteSpace=wrap;html=1;fixedSize=1;" vertex="1" parent="WIyWlLk6GJQsqaUBKTNV-1">
          <mxGeometry x="380" y="560" width="150" height="60" as="geometry" />
        </mxCell>
        <mxCell id="y9Y1NvHiftYscU7KsKt9-14" style="edgeStyle=orthogonalEdgeStyle;rounded=0;orthogonalLoop=1;jettySize=auto;html=1;entryX=0;entryY=0.5;entryDx=0;entryDy=0;" edge="1" parent="WIyWlLk6GJQsqaUBKTNV-1" source="y9Y1NvHiftYscU7KsKt9-5" target="y9Y1NvHiftYscU7KsKt9-6">
          <mxGeometry relative="1" as="geometry">
            <mxPoint x="70" y="732" as="targetPoint" />
            <Array as="points">
              <mxPoint x="50" y="720" />
            </Array>
          </mxGeometry>
        </mxCell>
        <mxCell id="y9Y1NvHiftYscU7KsKt9-5" value="output bil ganjil" style="shape=parallelogram;perimeter=parallelogramPerimeter;whiteSpace=wrap;html=1;fixedSize=1;" vertex="1" parent="WIyWlLk6GJQsqaUBKTNV-1">
          <mxGeometry y="560" width="150" height="60" as="geometry" />
        </mxCell>
        <mxCell id="y9Y1NvHiftYscU7KsKt9-6" value="SELSAI" style="rounded=1;whiteSpace=wrap;html=1;" vertex="1" parent="WIyWlLk6GJQsqaUBKTNV-1">
          <mxGeometry x="210" y="690" width="120" height="60" as="geometry" />
        </mxCell>
      </root>
    </mxGraphModel>
  </diagram>
</mxfile>
